<svg id="Layer_1" height="512" viewBox="0 0 512 512" width="512" xmlns="http://www.w3.org/2000/svg" data-name="Layer 1"><path d="m256 258.774a86.377 86.377 0 1 0 -86.394-86.374 86.47 86.47 0 0 0 86.394 86.374zm0-226.767c123.521 0 224 100.452 224 223.981a222.534 222.534 0 0 1 -37 123.171 122.972 122.972 0 0 0 -121.273-103.453h-131.459a122.972 122.972 0 0 0 -121.268 103.453 222.6 222.6 0 0 1 -37-123.171c0-123.529 100.5-223.981 224-223.981zm0 479.969c-141.162 0-256-114.813-256-255.988s114.836-255.988 256-255.988 256 114.812 256 255.988-114.841 255.988-256 255.988z" fill="#4caf50" fill-rule="evenodd"/></svg>