<svg id="Layer_1" viewBox="0 0 512 512" xmlns="http://www.w3.org/2000/svg" data-name="Layer 1"><path d="m256 95.257a95.707 95.707 0 1 0 67.681 28.034 95.35 95.35 0 0 0 -67.681-28.034zm56.371 39.349a79.688 79.688 0 1 1 -56.371-23.362 79.46 79.46 0 0 1 56.371 23.362zm75.3 179.177-124.861 194.409a8.2 8.2 0 0 1 -2.5 2.542 7.981 7.981 0 0 1 -11.03-2.4l-124.961-194.551c-28.769-44.822-46.948-94.914-46.948-142.783 0-42.6 14.269-83.37 48.02-117.107a185.212 185.212 0 0 1 261.219 0c33.752 33.737 48.021 74.507 48.021 117.107 0 47.869-18.179 97.961-46.96 142.783z" fill="#32a353" fill-rule="evenodd"/></svg>