<svg id="Capa_1" enable-background="new 0 0 512 512" height="512" viewBox="0 0 512 512" width="512" xmlns="http://www.w3.org/2000/svg"><g><path d="m499.856 271.515h-206.447s-.001-.001-.001-.001l-24.005-15.549 22.198-14.378h22.335c5.6 0 10.156-4.556 10.156-10.156v-15.154h17.044c6.835 11.283 19.229 18.84 33.357 18.84s26.522-7.557 33.358-18.84h82.057c12.174 0 22.077-9.904 22.077-22.077v-50.888c.002-5.92-1.098-11.633-3.11-17.011-4.455-11.784-13.445-21.62-25.326-26.966-18.532-8.339-71.056-20.818-100.716-27.515-3.641-.822-7.32-1.488-11.022-2.001l-37.117-30.146c-19.935-16.192-45.06-25.109-70.744-25.109h-77.549c-25.876 0-51.146 9.037-71.155 25.445l-34.594 28.368c-.07.057-.131.121-.198.18h-53.621c-14.787 0-26.816 12.03-26.816 26.816v68.241c0 9.08 3.87 17.772 10.617 23.847l22.45 20.216c6.16 5.546 14.117 8.601 22.406 8.601h23.338c6.835 11.283 19.229 18.84 33.357 18.84s26.522-7.557 33.357-18.84h42.367v15.154c0 5.6 4.556 10.156 10.156 10.156h22.335l22.198 14.378-24.005 15.549s-.001.001-.001.001h-126.762c-4.024 0-7.287 3.262-7.287 7.287 0 4.024 3.262 7.287 7.287 7.287h405.597v26.474h-482.854v-26.474h42.832c4.024 0 7.287-3.262 7.287-7.287 0-4.024-3.262-7.287-7.287-7.287h-45.26c-6.697-.001-12.145 5.447-12.145 12.143v31.332c0 6.696 5.448 12.144 12.144 12.144h103.553c.325.27 96.164 54.958 96.164 54.958l-118.757 67.7c-2.921 1.666-5.043 4.378-6.019 7.506h-11.563c-8.839 0-16.03 7.191-16.03 16.03v9.533h-18.14c-4.024 0-7.287 3.262-7.287 7.287s3.262 7.287 7.287 7.287h423.803c4.025 0 7.287-3.262 7.287-7.287s-3.262-7.287-7.287-7.287h-12.645v-9.533c0-8.839-7.192-16.03-16.03-16.03h-11.564c-.975-3.129-3.099-5.841-6.02-7.507l-13.012-7.418-23.479-27.035 11.786-10.152c5.191-4.287 5.814-12.65 1.315-17.659l-18.313-21.259c-4.505-5.23-12.428-5.818-17.658-1.314l-12.016 10.35-11.773-13.51 60.799-34.66h103.313c6.696 0 12.144-5.448 12.144-12.144v-31.332c-.002-6.696-5.45-12.144-12.146-12.144zm-125.365-50.97c-13.453 0-24.398-10.945-24.398-24.399s10.945-24.398 24.398-24.398c13.454 0 24.399 10.945 24.399 24.398.001 13.454-10.945 24.399-24.399 24.399zm0-63.37c-21.489 0-38.972 17.482-38.972 38.972 0 1.888.142 3.742.403 5.559h-8.925v-17.986c0-23.78 19.346-43.127 43.127-43.127h8.733c23.781 0 43.127 19.347 43.127 43.127v17.986h-8.925c.261-1.817.403-3.671.403-5.559.002-21.49-17.481-38.972-38.971-38.972zm122.919-5.388h-22.27c-3.223 0-6.318-1.188-8.712-3.346l-13.317-12.003h43.574c.725 5.979.725 15.349.725 15.349zm-179.917-73.902h10.515c9.576 0 17.366 7.79 17.366 17.366v2.305h-27.881zm8.011-26.899 21.638 17.574c-.478.004-.946.052-1.398.144-5.077-3.403-11.178-5.391-17.735-5.391h-12.944c-4.134 0-7.788 2.08-9.982 5.245h-76.94v-39.42h35.805c22.348 0 44.21 7.759 61.556 21.848zm-111.935-21.848v39.419h-71.982v-28.506c13.778-7.108 29.165-10.913 44.812-10.913zm-86.555 20.156v19.262h-23.599s22.749-18.611 23.599-19.262zm-106.628 127.337c-3.023-2.721-4.964-6.41-5.572-10.383 9.664-.88 18.068-7.324 21.33-16.603l4.991-14.195c2.438-6.37-2.807-13.771-9.624-13.585h-16.921v-26.492c0-6.751 5.492-12.243 12.243-12.243h276.087v16.855c0 6.696 5.448 12.144 12.144 12.144h32.739c6.696 0 12.144-5.448 12.144-12.144v-4.735c0-4.26-.845-8.324-2.365-12.043 7.417.254 14.812 1.197 22.039 2.828 23.448 5.294 79.93 18.483 97.946 26.589 4.776 2.149 8.868 5.35 12.086 9.24h-44.108c-4.87 0-9.145 2.937-10.891 7.483-1.747 4.546-.537 9.589 3.08 12.849l18.937 17.069c5.077 4.575 11.636 7.094 18.469 7.094h22.269v27.841c0 4.138-3.366 7.504-7.504 7.504h-53.347v-17.986c0-31.816-25.884-57.7-57.7-57.7h-8.733c-31.816 0-57.7 25.884-57.7 57.7v17.986h-84.283v-92.993c0-4.024-3.262-7.287-7.287-7.287-4.024 0-7.287 3.262-7.287 7.287v92.993h-39.318v-17.986c0-31.816-25.884-57.7-57.7-57.7h-8.733c-31.816 0-57.7 25.884-57.7 57.7v17.199c-2.678-.793-5.169-2.168-7.283-4.071zm-5.779-25.049v-15.144h10.733l-2.944 8.373c-1.234 3.512-4.233 6.053-7.789 6.771zm97.578 68.963c-13.454 0-24.398-10.945-24.398-24.399s10.945-24.398 24.398-24.398 24.399 10.945 24.399 24.398c-.001 13.454-10.946 24.399-24.399 24.399zm0-63.37c-21.489 0-38.972 17.482-38.972 38.972 0 1.888.142 3.742.403 5.559h-8.925v-17.986c0-23.78 19.346-43.127 43.127-43.127h8.733c23.78 0 43.127 19.347 43.127 43.127v17.986h-8.925c.261-1.817.403-3.671.403-5.559.001-21.49-17.482-38.972-38.971-38.972zm90.297 59.103h107.036v10.736h-107.036zm44.723 25.309h17.59l-8.795 5.697zm8.795 23.06 10.604 6.868h-21.207zm111.489 112.689 15.634 18.149-9.687 8.344-15.634-18.149zm-128.369-30.028v-20.172h33.761v20.172l-16.881 9.623zm-35.386-20.172h20.813v11.864zm83.72 0h20.812l-20.812 11.864zm-60.88 63.345 14.713 8.388-102.497 58.43h-29.426zm-152.509 82.848c0-.804.654-1.457 1.457-1.457h70.224c.804 0 1.457.654 1.457 1.457v9.533h-73.138zm363.87 0v9.533h-73.139v-9.533c0-.804.654-1.457 1.457-1.457h70.224c.805 0 1.458.654 1.458 1.457zm-64.725-16.03-51.083-29.12c-3.494-1.992-7.946-.775-9.938 2.722-1.993 3.496-.774 7.946 2.722 9.939l39.026 22.247c-2.316 2.78-3.713 6.351-3.713 10.243v9.533h-188.448v-9.533c0-3.892-1.397-7.463-3.713-10.243l97.937-55.831 30.069 17.142c3.433 1.975 7.935.807 9.939-2.722 1.993-3.496.774-7.946-2.721-9.939l-148.405-84.602h29.666c.325.27 228.087 130.163 228.087 130.163h-29.425zm-5.582-36.732-67.489-38.474 22.691-12.936zm-82.203-46.861-14.713-8.387 66.979-38.183h29.424z"/><path d="m145.476 119.308h14.848c4.024 0 7.287-3.262 7.287-7.287s-3.262-7.287-7.287-7.287h-14.848c-4.024 0-7.287 3.262-7.287 7.287s3.263 7.287 7.287 7.287z"/><path d="m250.938 119.308h14.848c4.025 0 7.287-3.262 7.287-7.287s-3.262-7.287-7.287-7.287h-14.848c-4.024 0-7.287 3.262-7.287 7.287s3.263 7.287 7.287 7.287z"/><circle cx="464.608" cy="183.286" r="7.669"/></g></svg>