<svg height="16" viewBox="0 0 16 16" width="16" xmlns="http://www.w3.org/2000/svg"><path d="m0 0h16v16h-16z" fill="none"/><path d="m15.708 13.587-3.675-3.675c.613-.992.967-2.161.967-3.412 0-3.59-2.91-6.5-6.5-6.5s-6.5 2.91-6.5 6.5 2.91 6.5 6.5 6.5c1.251 0 2.42-.354 3.412-.967l3.675 3.675c.389.389 1.025.389 1.414 0l.707-.707c.389-.389.389-1.025 0-1.414zm-12.39-3.905c-.85-.85-1.318-1.98-1.318-3.182s.468-2.332 1.318-3.182 1.98-1.318 3.182-1.318 2.332.468 3.182 1.318 1.318 1.98 1.318 3.182-.468 2.332-1.318 3.182-1.98 1.318-3.182 1.318-2.332-.468-3.182-1.318z"/></svg>