<svg id="Layer_1" enable-background="new 0 0 512 512" height="512" viewBox="0 0 512 512" width="512" xmlns="http://www.w3.org/2000/svg"><path d="m465.532 242.313-28.08-13.505-37.568-67.507c-7.415-13.323-20.945-21.277-36.193-21.277h-215.023c-22.84 0-41.421 18.581-41.421 41.42v147.86c0 4.418 3.582 8 8 8h25.785c3.757 19.716 21.114 34.671 41.908 34.671 20.793 0 38.151-14.955 41.908-34.671h140.051c3.757 19.716 21.114 34.671 41.908 34.671s38.152-14.955 41.909-34.671h32.284c4.418 0 8-3.582 8-8v-49.663c0-16.305-8.773-30.26-23.468-37.328zm-47.443-15.395h-36.313l-13.51-9.322c-1.336-.922-2.921-1.416-4.544-1.416h-32.93v-26.638h66.497zm-235.149 129.058c-14.706 0-26.671-11.965-26.671-26.671s11.965-26.671 26.671-26.671 26.671 11.965 26.671 26.671-11.965 26.671-26.671 26.671zm223.867 0c-14.706 0-26.671-11.965-26.671-26.671s11.965-26.671 26.671-26.671c14.707 0 26.672 11.965 26.672 26.671s-11.965 26.671-26.672 26.671zm66.193-34.671h-24.285c-3.757-19.716-21.115-34.671-41.909-34.671s-38.151 14.955-41.908 34.671h-140.05c-3.757-19.716-21.114-34.671-41.908-34.671s-38.151 14.955-41.908 34.671h-17.785v-139.86c0-14.017 11.403-25.42 25.421-25.42h215.022c9.498 0 17.594 4.76 22.213 13.059l2.481 4.459h-65.593c-4.418 0-8 3.582-8 8v42.638c0 4.418 3.582 8 8 8h38.438l13.51 9.322c1.336.922 2.921 1.416 4.544 1.416h50.59l28.725 13.815c9.019 4.337 14.402 12.9 14.402 22.908zm-190.991-86.387c0 4.418-3.582 8-8 8h-132.75c-4.418 0-8-3.582-8-8s3.582-8 8-8h132.75c4.418 0 8 3.582 8 8zm-191.118-81.277c0 4.418-3.582 8-8 8h-51.891c-4.418 0-8-3.582-8-8s3.582-8 8-8h51.891c4.418 0 8 3.582 8 8zm0 69.869c0 4.418-3.582 8-8 8h-38.764c-4.418 0-8-3.582-8-8s3.582-8 8-8h38.764c4.418 0 8 3.582 8 8zm0 69.869c0 4.418-3.582 8-8 8h-26.78c-4.418 0-8-3.582-8-8s3.582-8 8-8h26.779c4.419 0 8.001 3.582 8.001 8z"/></svg>